Coordinates
version=1
nRows=29
nColumns=24
inDegrees=yes

Units are S.I. units (second, meters, Newtons, ...)
Angles are in degrees.

endheader
time	pelvis_tilt	pelvis_list	pelvis_rotation	pelvis_tx	pelvis_ty	pelvis_tz	hip_flexion_r	hip_adduction_r	hip_rotation_r	knee_angle_r	ankle_angle_r	subtalar_angle_r	mtp_angle_r	hip_flexion_l	hip_adduction_l	hip_rotation_l	knee_angle_l	ankle_angle_l	subtalar_angle_l	mtp_angle_l	lumbar_extension	lumbar_bending	lumbar_rotation
      6.69000000	     11.89434635	      3.37547033	      4.15614341	      2.53206026	      0.94571608	     -0.28756331	      0.59377536	     -4.97044125	     -4.44186661	    -62.07688341	     12.09378813	     14.50240832	      0.00000000	    -13.13489758	      5.28179600	     13.84342035	     -6.67369270	     14.80215723	     -5.71080328	      0.00000000	    -22.97388517	     -5.27123907	     -2.91755514
      6.69500000	     11.92845054	      3.16626231	      4.32250869	      2.53749324	      0.94611145	     -0.28769766	      1.18619060	     -4.73495530	     -4.60451443	    -61.51409477	     13.09642972	     13.61895645	      0.00000000	    -13.66775962	      4.96563613	     13.83431981	     -6.34627689	     14.84452136	     -5.69267457	      0.00000000	    -22.98414853	     -4.97686780	     -3.24105289
      6.70000000	     11.96559950	      2.95692891	      4.52303606	      2.54292767	      0.94648373	     -0.28783717	      1.74600720	     -4.49718003	     -4.79670008	    -60.85769629	     14.03703665	     12.75035379	      0.00000000	    -14.19901856	      4.63514901	     13.83688270	     -6.02615019	     14.90794339	     -5.60357143	      0.00000000	    -23.00008049	     -4.67541383	     -3.58850219
      6.70500000	     12.06115240	      2.75538011	      4.78632977	      2.54838128	      0.94690635	     -0.28803596	      2.19552924	     -4.26917523	     -5.05976549	    -60.08933591	     14.93154224	     11.93948959	      0.00000000	    -14.79378025	      4.28542257	     13.86503074	     -5.70242137	     14.95811540	     -5.44176777	      0.00000000	    -23.08496986	     -4.35670347	     -3.98274728
      6.71000000	     12.07538985	      2.57541447	      4.93565527	      2.55371442	      0.94715682	     -0.28810094	      2.76861176	     -4.06324071	     -5.18603872	    -59.30440550	     15.73001367	     11.05189875	      0.00000000	    -15.28364852	      4.00134794	     13.83274022	     -5.40404820	     15.00544952	     -5.41757848	      0.00000000	    -23.09500109	     -4.10473436	     -4.29580597
      6.71500000	     12.13661998	      2.39390752	      5.17233480	      2.55912029	      0.94745563	     -0.28825619	      3.22905215	     -3.86286358	     -5.41659234	    -58.39671066	     16.48689544	     10.25132742	      0.00000000	    -15.82722215	      3.68114342	     13.80232860	     -5.10093097	     15.06025221	     -5.26355767	      0.00000000	    -23.14922506	     -3.81874978	     -4.65993019
      6.72000000	     12.17659430	      2.22774431	      5.36094781	      2.56444405	      0.94767832	     -0.28834006	      3.71427634	     -3.67352408	     -5.57748123	    -57.43630968	     17.17607394	      9.44615586	      0.00000000	    -16.33538794	      3.39338908	     13.76313833	     -4.81602836	     15.09929916	     -5.17418443	      0.00000000	    -23.19744077	     -3.56671408	     -4.99199135
      6.72500000	     12.16849903	      2.08351215	      5.50458771	      2.56970049	      0.94778985	     -0.28835316	      4.25213266	     -3.50471578	     -5.67094268	    -56.43030465	     17.79628572	      8.63780056	      0.00000000	    -16.77940564	      3.14754859	     13.71056217	     -4.55480062	     15.13713487	     -5.13078007	      0.00000000	    -23.20780661	     -3.35996428	     -5.29705225
      6.73000000	     12.17119771	      1.94054040	      5.68211220	      2.57497010	      0.94789047	     -0.28836633	      4.73980131	     -3.33962276	     -5.80095502	    -55.33226564	     18.37328513	      7.90813073	      0.00000000	    -17.23034041	      2.88763530	     13.64893691	     -4.30029206	     15.18807624	     -5.03268732	      0.00000000	    -23.23091137	     -3.14937580	     -5.61224001
      6.73500000	     12.18327967	      1.80924767	      5.85772149	      2.58022921	      0.94796312	     -0.28839443	      5.18964835	     -3.18690895	     -5.91731626	    -54.15644611	     18.89969902	      7.22436811	      0.00000000	    -17.68538223	      2.64104790	     13.59311761	     -4.05912668	     15.24046791	     -4.93466734	      0.00000000	    -23.26682139	     -2.94331556	     -5.92645690
      6.74000000	     12.30873397	      1.68941598	      6.07985533	      2.58548385	      0.94813278	     -0.28847316	      5.46768007	     -3.04292949	     -6.08644797	    -52.87928756	     19.39499943	      6.64172646	      0.00000000	    -18.26276448	      2.37564795	     13.54116919	     -3.81217538	     15.27420703	     -4.78962063	      0.00000000	    -23.43703948	     -2.71470652	     -6.30732535
      6.74500000	     12.25723415	      1.58591159	      6.20035791	      2.59069399	      0.94804811	     -0.28840444	      5.95207596	     -2.91733699	     -6.11664622	    -51.58197916	     19.82776315	      6.04798026	      0.00000000	    -18.63630275	      2.18210621	     13.47546043	     -3.60056004	     15.31668673	     -4.76329426	      0.00000000	    -23.42174058	     -2.57029309	     -6.54564633
      6.75000000	     12.29634110	      1.48513674	      6.39868473	      2.59591246	      0.94805065	     -0.28840781	      6.27838300	     -2.79438595	     -6.22787591	    -50.17472204	     20.23889964	      5.56870838	      0.00000000	    -19.09815351	      1.95112297	     13.41227717	     -3.40105562	     15.36734730	     -4.60460805	      0.00000000	    -23.51254505	     -2.38671343	     -6.87229943
      6.75500000	     12.31344868	      1.39714027	      6.55368886	      2.60110428	      0.94797447	     -0.28834695	      6.61371062	     -2.67930062	     -6.27512290	    -48.71465305	     20.59617221	      5.12140433	      0.00000000	    -19.53154672	      1.75108732	     13.35302958	     -3.21458864	     15.41816035	     -4.53547749	      0.00000000	    -23.58590716	     -2.23685953	     -7.16084723
      6.76000000	     12.24724863	      1.32752886	      6.65678481	      2.60625540	      0.94775551	     -0.28821910	      7.03060581	     -2.58456484	     -6.24364790	    -47.21664143	     20.91047436	      4.71331983	      0.00000000	    -19.86247621	      1.60119444	     13.28468908	     -3.06052940	     15.46247465	     -4.53418765	      0.00000000	    -23.57698914	     -2.13184861	     -7.39858187
      6.76500000	     12.31119937	      1.26711274	      6.85914248	      2.61143992	      0.94766945	     -0.28817140	      7.23146620	     -2.49742823	     -6.32268961	    -45.59730889	     21.20515648	      4.41906306	      0.00000000	    -20.32925666	      1.40225695	     13.24344938	     -2.90864237	     15.54042911	     -4.37466379	      0.00000000	    -23.71714673	     -1.99215805	     -7.72863566
      6.77000000	     12.22872083	      1.21385115	      6.94188936	      2.61660479	      0.94736484	     -0.28798287	      7.60070502	     -2.41342311	     -6.22777442	    -43.96592568	     21.44388579	      4.17458600	      0.00000000	    -20.63233955	      1.27476431	     13.19216178	     -2.78357245	     15.56801879	     -4.38813113	      0.00000000	    -23.69815647	     -1.91760001	     -7.94708499
      6.77500000	     12.32404413	      1.17309294	      7.15508786	      2.62177487	      0.94722936	     -0.28790961	      7.69481914	     -2.33900718	     -6.28807096	    -42.20924018	     21.66018271	      3.98270481	      0.00000000	    -21.11575664	      1.08447715	     13.17852745	     -2.66846969	     15.68135478	     -4.23289852	      0.00000000	    -23.88548976	     -1.79126835	     -8.28416506
      6.78000000	     12.23114666	      1.13653271	      7.23878977	      2.62695918	      0.94683596	     -0.28771189	      8.00108948	     -2.27430050	     -6.16830990	    -40.44885872	     21.82200317	      3.86667327	      0.00000000	    -21.39130428	      0.97564597	     13.13441522	     -2.58560932	     15.73325857	     -4.24012522	      0.00000000	    -23.86180009	     -1.73311360	     -8.47962133
      6.78500000	     12.23285261	      1.10997965	      7.41509649	      2.63215883	      0.94650556	     -0.28756973	      8.13843481	     -2.21763869	     -6.15179279	    -38.59384517	     21.95865411	      3.76197602	      0.00000000	    -21.75400665	      0.82511667	     13.12807031	     -2.52676227	     15.88035344	     -4.12703718	      0.00000000	    -23.94761249	     -1.64849181	     -8.75640776
      6.79000000	     12.32920668	      1.12210094	      7.59572316	      2.63730921	      0.94625696	     -0.28742587	      8.13105198	     -2.19039382	     -6.11502068	    -36.67569828	     22.04248131	      3.75517834	      0.00000000	    -22.21333264	      0.69596266	     13.14643935	     -2.47815839	     15.94715518	     -4.02952836	      0.00000000	    -24.16433657	     -1.58280205	     -9.08342964
      6.79500000	     12.22674654	      1.12954646	      7.67808616	      2.64254124	      0.94572502	     -0.28718832	      8.33672832	     -2.17347782	     -5.94876596	    -34.76191861	     22.07045273	      3.79993929	      0.00000000	    -22.45633043	      0.63023550	     13.12504939	     -2.46162098	     16.03760169	     -4.00537049	      0.00000000	    -24.14011427	     -1.57348192	     -9.27535359
      6.80000000	     12.29521882	      1.16868719	      7.88699037	      2.64771914	      0.94534850	     -0.28704143	      8.28310639	     -2.17887512	     -5.90367276	    -32.75488598	     22.08397643	      3.83512223	      0.00000000	    -22.85571599	      0.51913695	     13.17933610	     -2.48789992	     16.18299969	     -3.86496687	      0.00000000	    -24.33649004	     -1.53093016	     -9.60547993
      6.80500000	     12.21103524	      1.20912488	      7.98253729	      2.65301687	      0.94474852	     -0.28679591	      8.39163387	     -2.19818443	     -5.72348246	    -30.76273500	     21.98877291	      3.93283131	      0.00000000	    -23.10822872	      0.47512434	     13.18599329	     -2.50911980	     16.30306862	     -3.81941852	      0.00000000	    -24.33179258	     -1.55142383	     -9.81845950
      6.81000000	     12.31646841	      1.29924560	      8.18804311	      2.65824205	      0.94431452	     -0.28663831	      8.22784361	     -2.25783336	     -5.65220368	    -28.70236038	     21.89955344	      4.05573384	      0.00000000	    -23.54070273	      0.40613180	     13.27705359	     -2.57016062	     16.44740659	     -3.69774549	      0.00000000	    -24.57594708	     -1.55506859	    -10.16201191
      6.81500000	     12.27985944	      1.39243982	      8.32937960	      2.66356001	      0.94366738	     -0.28640070	      8.20836440	     -2.33091687	     -5.47772728	    -26.66136187	     21.73694900	      4.15330883	      0.00000000	    -23.81779867	      0.38530394	     13.33142641	     -2.66247486	     16.61537929	     -3.58178209	      0.00000000	    -24.64483944	     -1.60764189	    -10.42552770
      6.82000000	     12.20597046	      1.49912827	      8.45961571	      2.66888435	      0.94294033	     -0.28615382	      8.20962781	     -2.42577848	     -5.26501682	    -24.62959916	     21.48476517	      4.24924094	      0.00000000	    -24.03822542	      0.39000981	     13.39360921	     -2.79971052	     16.78031080	     -3.47762356	      0.00000000	    -24.68127903	     -1.67675750	    -10.68222636
      6.82500000	     12.17970398	      1.64720095	      8.61693741	      2.67422872	      0.94221469	     -0.28593052	      8.12419638	     -2.56736765	     -5.08291390	    -22.60271420	     21.20330224	      4.36078133	      0.00000000	    -24.30422482	      0.41483470	     13.49121801	     -2.96130475	     16.96441443	     -3.33988101	      0.00000000	    -24.77882672	     -1.77151262	    -10.98634134
      6.83000000	     12.12642642	      1.82145679	      8.74696004	      2.67965276	      0.94139806	     -0.28567676	      8.05106167	     -2.74032755	     -4.85728354	    -20.61096500	     20.87827130	      4.43712615	      0.00000000	    -24.54698975	      0.47885006	     13.58102592	     -3.13425713	     17.15616669	     -3.21540986	      0.00000000	    -24.83310153	     -1.90928714	    -11.28201227
